<svg width="1920" height="278" viewBox="0 0 1920 278" fill="none" xmlns="http://www.w3.org/2000/svg">
<g clip-path="url(#clip0_103_537)">
<path d="M0 0L45.7333 41.2174C91.4667 82.0486 182.667 165.063 274.667 169.889C365.733 174.715 457.333 103.285 548 97.7826C640 92.6667 732 154.444 822.667 185.333C914.267 216.222 1005.33 216.222 1097.33 211.106C1188.53 205.604 1280 195.951 1372 180.217C1462.8 165.062 1554.67 143.826 1645.33 113.227C1737.2 82.0486 1828 41.5069 1874.67 20.5604L1920 0V278H1874.27C1828.53 278 1737.33 278 1645.33 278C1554.27 278 1462.67 278 1372 278C1280 278 1188 278 1097.33 278C1005.73 278 914.667 278 822.667 278C731.467 278 640 278 548 278C457.2 278 365.333 278 274.667 278C182.8 278 92 278 45.3333 278H0V0Z"
fill="#2A3B67"/>
</g>
<defs>
<clipPath id="clip0_103_537">
<rect width="1920" height="278" fill="white"/>
</clipPath>
</defs>
</svg>
