<?xml version="1.0" standalone="no"?>
<!DOCTYPE svg PUBLIC "-//W3C//DTD SVG 1.1//EN" "http://www.w3.org/Graphics/SVG/1.1/DTD/svg11.dtd" >
<svg xmlns="http://www.w3.org/2000/svg">
<metadata>Generated by IcoMoon</metadata>
<defs>
<font id="icomoon" horiz-adv-x="1024">
<font-face units-per-em="1024" ascent="960" descent="-64" />
<missing-glyph horiz-adv-x="1024" />
<glyph unicode="&#x20;" horiz-adv-x="512" d="" />
<glyph unicode="&#xe900;" glyph-name="angles-left" d="M82.8 493.2c-25-25-25-65.6 0-90.6l320-320c25-25 65.6-25 90.6 0s25 65.6 0 90.6l-274.8 274.8 274.6 274.8c25 25 25 65.6 0 90.6s-65.6 25-90.6 0l-320-320 0.2-0.2zM786.8 813.2l-320-320c-25-25-25-65.6 0-90.6l320-320c25-25 65.6-25 90.6 0s25 65.6 0 90.6l-274.8 274.8 274.6 274.8c25 25 25 65.6 0 90.6s-65.6 25-90.6 0l0.2-0.2z" />
<glyph unicode="&#xe901;" glyph-name="arrow-left" horiz-adv-x="896" d="M18.8 493.2c-25-25-25-65.6 0-90.6l320-320c25-25 65.6-25 90.6 0s25 65.6 0 90.6l-211 210.8h613.6c35.4 0 64 28.6 64 64s-28.6 64-64 64h-613.4l210.6 210.8c25 25 25 65.6 0 90.6s-65.6 25-90.6 0l-320-320 0.2-0.2z" />
<glyph unicode="&#xe902;" glyph-name="bars" horiz-adv-x="896" d="M0 768c0 35.4 28.6 64 64 64h768c35.4 0 64-28.6 64-64s-28.6-64-64-64h-768c-35.4 0-64 28.6-64 64zM0 448c0 35.4 28.6 64 64 64h768c35.4 0 64-28.6 64-64s-28.6-64-64-64h-768c-35.4 0-64 28.6-64 64zM896 128c0-35.4-28.6-64-64-64h-768c-35.4 0-64 28.6-64 64s28.6 64 64 64h768c35.4 0 64-28.6 64-64z" />
<glyph unicode="&#xe903;" glyph-name="chevron-down" d="M466.8 146.8c25-25 65.6-25 90.6 0l384 384c25 25 25 65.6 0 90.6s-65.6 25-90.6 0l-338.8-338.8-338.8 338.6c-25 25-65.6 25-90.6 0s-25-65.6 0-90.6l384-384 0.2 0.2z" />
<glyph unicode="&#xe904;" glyph-name="chevron-left" horiz-adv-x="640" d="M18.8 493.2c-25-25-25-65.6 0-90.6l384-384c25-25 65.6-25 90.6 0s25 65.6 0 90.6l-338.8 338.8 338.6 338.8c25 25 25 65.6 0 90.6s-65.6 25-90.6 0l-384-384 0.2-0.2z" />
<glyph unicode="&#xe905;" glyph-name="circle-exclamation" d="M512-64c135.79 0 266.020 53.942 362.038 149.962 96.020 96.018 149.962 226.248 149.962 362.038s-53.942 266.020-149.962 362.039c-96.018 96.019-226.248 149.961-362.038 149.961s-266.020-53.943-362.039-149.961c-96.019-96.019-149.961-226.249-149.961-362.039s53.943-266.020 149.961-362.038c96.019-96.020 226.249-149.962 362.039-149.962zM512 704c26.6 0 48-21.4 48-48v-224c0-26.6-21.4-48-48-48s-48 21.4-48 48v224c0 26.6 21.4 48 48 48zM448 256c0 16.974 6.742 33.252 18.746 45.254 12.002 12.004 28.28 18.746 45.254 18.746s33.252-6.742 45.254-18.746c12.004-12.002 18.746-28.28 18.746-45.254s-6.742-33.252-18.746-45.254c-12.002-12.004-28.28-18.746-45.254-18.746s-33.252 6.742-45.254 18.746c-12.004 12.002-18.746 28.28-18.746 45.254z" />
<glyph unicode="&#xe906;" glyph-name="circle-notch" d="M445.4 895.8c10-33.8-9.2-69.6-43-79.6-158.8-47.4-274.4-194.4-274.4-368.2 0-212 172-384 384-384s384 172 384 384c0 173.8-115.6 320.8-274.2 368.2-33.8 10-53.2 45.8-43 79.6s45.8 53.2 79.6 43c211.4-63 365.6-258.8 365.6-490.8 0-282.8-229.2-512-512-512s-512 229.2-512 512c0 232 154.2 427.8 365.8 490.8 33.8 10 69.6-9.2 79.6-43z" />
<glyph unicode="&#xe907;" glyph-name="circle-user" d="M798 191.6c-44.2 76.8-127.2 128.4-222 128.4h-128c-94.8 0-177.8-51.6-222-128.4 70.4-78.4 172.4-127.6 286-127.6s215.6 49.4 286 127.6zM0 448c0 135.79 53.943 266.020 149.961 362.039s226.249 149.961 362.039 149.961c135.79 0 266.020-53.943 362.038-149.961 96.020-96.019 149.962-226.249 149.962-362.039s-53.942-266.020-149.962-362.038c-96.018-96.020-226.248-149.962-362.038-149.962s-266.020 53.942-362.039 149.962c-96.019 96.018-149.961 226.248-149.961 362.038zM512 416c38.192 0 74.818 15.172 101.824 42.176 27.004 27.006 42.176 63.632 42.176 101.824s-15.172 74.818-42.176 101.824c-27.006 27.004-63.632 42.176-101.824 42.176s-74.818-15.172-101.824-42.176c-27.004-27.006-42.176-63.632-42.176-101.824s15.172-74.818 42.176-101.824c27.006-27.004 63.632-42.176 101.824-42.176z" />
<glyph unicode="&#xe908;" glyph-name="circle-xmark" d="M512-64c135.79 0 266.020 53.942 362.038 149.962 96.020 96.018 149.962 226.248 149.962 362.038s-53.942 266.020-149.962 362.039c-96.018 96.019-226.248 149.961-362.038 149.961s-266.020-53.943-362.039-149.961c-96.019-96.019-149.961-226.249-149.961-362.039s53.943-266.020 149.961-362.038c96.019-96.020 226.249-149.962 362.039-149.962zM350 610c18.8 18.8 49.2 18.8 67.8 0l94-94 94 94c18.8 18.8 49.2 18.8 67.8 0s18.8-49.2 0-67.8l-94-94 94-94c18.8-18.8 18.8-49.2 0-67.8s-49.2-18.8-67.8 0l-94 94-94-94c-18.8-18.8-49.2-18.8-67.8 0s-18.8 49.2 0 67.8l94 94-94 94c-18.8 18.8-18.8 49.2 0 67.8z" />
<glyph unicode="&#xe909;" glyph-name="clock-rotate-left" d="M150 810l-68 68c-30.2 30.2-82 8.8-82-33.8v-220.2c0-26.6 21.4-48 48-48h220.2c42.8 0 64.2 51.8 34 82l-61.6 61.6c69.4 69.4 165.4 112.4 271.4 112.4 212 0 384-172 384-384s-172-384-384-384c-81.6 0-157.2 25.4-219.4 68.8-29 20.2-68.8 13.2-89.2-15.8s-13.2-68.8 15.8-89.2c83.2-57.8 184.2-91.8 292.8-91.8 282.8 0 512 229.2 512 512s-229.2 512-512 512c-141.4 0-269.4-57.4-362-150zM512 704c-26.6 0-48-21.4-48-48v-208c0-12.8 5-25 14-34l144-144c18.8-18.8 49.2-18.8 67.8 0s18.8 49.2 0 67.8l-130 130v188.2c0 26.6-21.4 48-48 48h0.2z" />
<glyph unicode="&#xe90a;" glyph-name="code-fork" d="M224 752c12.73 0 24.94 5.058 33.942 14.059 9 9.002 14.058 21.211 14.058 33.941s-5.058 24.939-14.058 33.941c-9.002 9.002-21.212 14.059-33.942 14.059s-24.939-5.057-33.941-14.059c-9.002-9.002-14.059-21.211-14.059-33.941s5.057-24.939 14.059-33.941c9.002-9.001 21.211-14.059 33.941-14.059zM384 800c0-65.6-39.4-122-96-146.6v-77.4c0-35.4 28.6-64 64-64h320c35.4 0 64 28.6 64 64v77.4c-56.6 24.6-96 81-96 146.6 0 88.4 71.6 160 160 160s160-71.6 160-160c0-65.6-39.4-122-96-146.6v-77.4c0-106-86-192-192-192h-96v-141.4c56.6-24.6 96-81 96-146.6 0-88.4-71.6-160-160-160s-160 71.6-160 160c0 65.6 39.4 122 96 146.6v141.4h-96c-106 0-192 86-192 192v77.4c-56.6 24.6-96 81-96 146.6 0 88.4 71.6 160 160 160s160-71.6 160-160zM800 752c12.73 0 24.94 5.058 33.942 14.059 9 9.002 14.058 21.211 14.058 33.941s-5.058 24.939-14.058 33.941c-9.002 9.002-21.212 14.059-33.942 14.059s-24.94-5.057-33.942-14.059c-9-9.002-14.058-21.211-14.058-33.941s5.058-24.939 14.058-33.941c9.002-9.001 21.212-14.059 33.942-14.059zM560 96c0 12.73-5.058 24.94-14.058 33.942-9.002 9-21.212 14.058-33.942 14.058s-24.94-5.058-33.942-14.058c-9-9.002-14.058-21.212-14.058-33.942s5.058-24.94 14.058-33.942c9.002-9 21.212-14.058 33.942-14.058s24.94 5.058 33.942 14.058c9 9.002 14.058 21.212 14.058 33.942z" />
<glyph unicode="&#xe90b;" glyph-name="envelope" d="M96 832c-53 0-96-43-96-96 0-30.2 14.2-58.6 38.4-76.8l435.2-326.4c22.8-17 54-17 76.8 0l435.2 326.4c24.2 18.2 38.4 46.6 38.4 76.8 0 53-43 96-96 96h-832zM0 608v-416c0-70.6 57.4-128 128-128h768c70.6 0 128 57.4 128 128v416l-435.2-326.4c-45.6-34.2-108-34.2-153.6 0l-435.2 326.4z" />
<glyph unicode="&#xe90c;" glyph-name="envelope-circle-check" horiz-adv-x="1280" d="M96 832c-53 0-96-43-96-96 0-30.2 14.2-58.6 38.4-76.8l435.2-326.4c22.8-17 54-17 76.8 0l114.8 86c47.8 119.6 159.4 206.6 292.6 219.6l27.8 20.8c24.2 18.2 38.4 46.6 38.4 76.8 0 53-43 96-96 96h-832zM588.8 281.6c-45.6-34.2-108-34.2-153.6 0l-435.2 326.4v-416c0-70.6 57.4-128 128-128h592.4c-50.2 60.8-80.4 139-80.4 224 0 11.2 0.6 22.2 1.6 33.2l-52.8-39.6zM1280 288c0 76.382-30.342 149.636-84.354 203.646-54.010 54.012-127.264 84.354-203.646 84.354s-149.636-30.342-203.646-84.354c-54.012-54.010-84.354-127.264-84.354-203.646s30.342-149.636 84.354-203.646c54.010-54.012 127.264-84.354 203.646-84.354s149.636 30.342 203.646 84.354c54.012 54.010 84.354 127.264 84.354 203.646zM1126.6 374.6c12.4-12.4 12.4-32.8 0-45.2l-144-144c-12.4-12.4-32.8-12.4-45.2 0l-80 80c-12.4 12.4-12.4 32.8 0 45.2s32.8 12.4 45.2 0l57.4-57.4 121.4 121.4c12.4 12.4 32.8 12.4 45.2 0z" />
<glyph unicode="&#xe90d;" glyph-name="eye" horiz-adv-x="1152" d="M576 896c-161.6 0-291-73.6-385.2-161.2-93.6-86.8-156.2-190.8-185.8-262.2-6.6-15.8-6.6-33.4 0-49.2 29.6-71.4 92.2-175.4 185.8-262.2 94.2-87.6 223.6-161.2 385.2-161.2s291 73.6 385.2 161.2c93.6 87 156.2 190.8 186 262.2 6.6 15.8 6.6 33.4 0 49.2-29.8 71.4-92.4 175.4-186 262.2-94.2 87.6-223.6 161.2-385.2 161.2zM288 448c0 76.382 30.342 149.636 84.354 203.646 54.010 54.012 127.264 84.354 203.646 84.354s149.636-30.342 203.646-84.354c54.012-54.010 84.354-127.264 84.354-203.646s-30.342-149.636-84.354-203.646c-54.010-54.012-127.264-84.354-203.646-84.354s-149.636 30.342-203.646 84.354c-54.012 54.010-84.354 127.264-84.354 203.646zM576 576c0-70.6-57.4-128-128-128-14.2 0-27.8 2.4-40.6 6.6-11 3.6-23.8-3.2-23.4-14.8 0.6-13.8 2.6-27.6 6.4-41.4 27.4-102.4 132.8-163.2 235.2-135.8s163.2 132.8 135.8 235.2c-22.2 83-95.6 138.8-177.2 142.2-11.6 0.4-18.4-12.2-14.8-23.4 4.2-12.8 6.6-26.4 6.6-40.6z" />
<glyph unicode="&#xe90e;" glyph-name="eye-slash" horiz-adv-x="1280" d="M77.6 949.8c-20.8 16.4-51 12.6-67.4-8.2s-12.6-51 8.2-67.4l1184-928c20.8-16.4 51-12.6 67.4 8.2s12.6 51-8.2 67.4l-210.4 164.8c79.2 81.2 132.8 172.2 159.8 236.8 6.6 15.8 6.6 33.4 0 49.2-29.8 71.4-92.4 175.4-186 262.2-94 87.6-223.4 161.2-385 161.2-136.4 0-250-52.6-338.6-121.6l-223.8 175.4zM446.2 661c51 46.6 119.2 75 193.8 75 159 0 288-129 288-288 0-49.8-12.6-96.6-34.8-137.4l-77.2 60.4c16.8 38.6 21.2 82.8 9.6 126.6-22.2 83-95.6 138.8-177.2 142.2-11.6 0.4-18.4-12.2-14.8-23.4 4.2-12.8 6.6-26.4 6.6-40.6 0-20.4-4.8-39.6-13.2-56.6l-180.8 141.8zM746 180.2c-32.8-13-68.6-20.2-106-20.2-159 0-288 129-288 288 0 13.8 1 27.2 2.8 40.4l-188.6 148.6c-45.6-59.4-78.2-118.6-97.2-164.4-6.6-15.8-6.6-33.4 0-49.2 29.8-71.4 92.4-175.4 186-262.2 94-87.6 223.4-161.2 385-161.2 95.6 0 179.8 25.8 252.4 65l-146.4 115.2z" />
<glyph unicode="&#xe90f;" glyph-name="file-arrow-down" horiz-adv-x="768" d="M128 960c-70.6 0-128-57.4-128-128v-768c0-70.6 57.4-128 128-128h512c70.6 0 128 57.4 128 128v576h-256c-35.4 0-64 28.6-64 64v256h-320zM512 960v-256h256l-256 256zM432 496v-204.2l62 62c18.8 18.8 49.2 18.8 67.8 0s18.8-49.2 0-67.8l-144-144c-18.8-18.8-49.2-18.8-67.8 0l-144 144c-18.8 18.8-18.8 49.2 0 67.8s49.2 18.8 67.8 0l62-62v204.2c0 26.6 21.4 48 48 48s48-21.4 48-48h0.2z" />
<glyph unicode="&#xe910;" glyph-name="file-circle-plus" horiz-adv-x="1152" d="M0 832c0 70.6 57.4 128 128 128h320v-256c0-35.4 28.6-64 64-64h256v-77.2c-147.8-41.8-256-177.6-256-338.8 0-118.2 58.2-222.6 147.4-286.6-6.4-1-12.8-1.4-19.4-1.4h-512c-70.6 0-128 57.4-128 128v768zM768 704h-256v256l256-256zM864 512c76.382 0 149.636-30.342 203.646-84.354 54.012-54.010 84.354-127.264 84.354-203.646s-30.342-149.636-84.354-203.646c-54.010-54.012-127.264-84.354-203.646-84.354s-149.636 30.342-203.646 84.354c-54.012 54.010-84.354 127.264-84.354 203.646s30.342 149.636 84.354 203.646c54.010 54.012 127.264 84.354 203.646 84.354zM896 352c0 17.6-14.4 32-32 32s-32-14.4-32-32v-96h-96c-17.6 0-32-14.4-32-32s14.4-32 32-32h96v-96c0-17.6 14.4-32 32-32s32 14.4 32 32v96h96c17.6 0 32 14.4 32 32s-14.4 32-32 32h-96v96z" />
<glyph unicode="&#xe911;" glyph-name="file-lines" horiz-adv-x="768" d="M128 960c-70.6 0-128-57.4-128-128v-768c0-70.6 57.4-128 128-128h512c70.6 0 128 57.4 128 128v576h-256c-35.4 0-64 28.6-64 64v256h-320zM512 960v-256h256l-256 256zM224 448h320c17.6 0 32-14.4 32-32s-14.4-32-32-32h-320c-17.6 0-32 14.4-32 32s14.4 32 32 32zM224 320h320c17.6 0 32-14.4 32-32s-14.4-32-32-32h-320c-17.6 0-32 14.4-32 32s14.4 32 32 32zM224 192h320c17.6 0 32-14.4 32-32s-14.4-32-32-32h-320c-17.6 0-32 14.4-32 32s14.4 32 32 32z" />
<glyph unicode="&#xe912;" glyph-name="floppy-disk" horiz-adv-x="896" d="M128 896c-70.6 0-128-57.4-128-128v-640c0-70.6 57.4-128 128-128h640c70.6 0 128 57.4 128 128v485.4c0 34-13.4 66.6-37.4 90.6l-154.6 154.6c-24 24-56.6 37.4-90.6 37.4h-485.4zM128 704c0 35.4 28.6 64 64 64h384c35.4 0 64-28.6 64-64v-128c0-35.4-28.6-64-64-64h-384c-35.4 0-64 28.6-64 64v128zM448 384c33.948 0 66.504-13.486 90.51-37.49 24.004-24.006 37.49-56.562 37.49-90.51s-13.486-66.504-37.49-90.51c-24.006-24.004-56.562-37.49-90.51-37.49s-66.506 13.486-90.51 37.49c-24.004 24.006-37.49 56.562-37.49 90.51s13.486 66.504 37.49 90.51c24.004 24.004 56.562 37.49 90.51 37.49z" />
<glyph unicode="&#xe913;" glyph-name="id-badge" horiz-adv-x="768" d="M128 960c-70.6 0-128-57.4-128-128v-768c0-70.6 57.4-128 128-128h512c70.6 0 128 57.4 128 128v768c0 70.6-57.4 128-128 128h-512zM320 320h128c88.4 0 160-71.6 160-160 0-17.6-14.4-32-32-32h-384c-17.6 0-32 14.4-32 32 0 88.4 71.6 160 160 160zM256 512c0 33.948 13.486 66.506 37.49 90.51s56.562 37.49 90.51 37.49c33.948 0 66.506-13.486 90.51-37.49s37.49-56.562 37.49-90.51c0-33.948-13.486-66.504-37.49-90.51-24.004-24.004-56.562-37.49-90.51-37.49s-66.506 13.486-90.51 37.49c-24.004 24.006-37.49 56.562-37.49 90.51zM288 832h192c17.6 0 32-14.4 32-32s-14.4-32-32-32h-192c-17.6 0-32 14.4-32 32s14.4 32 32 32z" />
<glyph unicode="&#xe914;" glyph-name="key" d="M672 256c194.4 0 352 157.6 352 352s-157.6 352-352 352c-194.4 0-352-157.6-352-352 0-37.4 5.8-73.6 16.6-107.4l-322.6-322.6c-9-9-14-21.2-14-34v-160c0-26.6 21.4-48 48-48h160c26.6 0 48 21.4 48 48v80h80c26.6 0 48 21.4 48 48v80h80c12.8 0 25 5 34 14l66.6 66.6c33.8-10.8 70-16.6 107.4-16.6zM752 768c21.218 0 41.566-8.428 56.568-23.432 15.004-15.002 23.432-35.35 23.432-56.568s-8.428-41.566-23.432-56.568c-15.002-15.004-35.35-23.432-56.568-23.432s-41.566 8.428-56.568 23.432c-15.004 15.002-23.432 35.35-23.432 56.568s8.428 41.566 23.432 56.568c15.002 15.004 35.35 23.432 56.568 23.432z" />
<glyph unicode="&#xe915;" glyph-name="list-check" d="M304.2 883.6c19.8-17.8 21.4-48 3.6-67.8l-144-160c-8.8-9.8-21.2-15.6-34.4-15.8s-25.8 4.8-35.2 14l-80.2 80c-18.6 18.8-18.6 49.2 0 68s49.2 18.8 67.8 0l44.2-44.2 110.2 122.4c17.8 19.8 48 21.4 67.8 3.6l0.2-0.2zM304.2 563.6c19.8-17.8 21.4-48 3.6-67.8l-144-160c-8.8-9.8-21.2-15.6-34.4-15.8s-25.8 4.8-35.2 14l-80.2 80c-18.8 18.8-18.8 49.2 0 67.8s49.2 18.8 67.8 0l44.2-44.2 110.2 122.4c17.8 19.8 48 21.4 67.8 3.6h0.2zM448 768c0 35.4 28.6 64 64 64h448c35.4 0 64-28.6 64-64s-28.6-64-64-64h-448c-35.4 0-64 28.6-64 64zM448 448c0 35.4 28.6 64 64 64h448c35.4 0 64-28.6 64-64s-28.6-64-64-64h-448c-35.4 0-64 28.6-64 64zM320 128c0 35.4 28.6 64 64 64h576c35.4 0 64-28.6 64-64s-28.6-64-64-64h-576c-35.4 0-64 28.6-64 64zM96 224c25.461 0 49.879-10.114 67.882-28.118s28.118-42.422 28.118-67.882c0-25.46-10.114-49.878-28.118-67.882s-42.422-28.118-67.882-28.118c-25.461 0-49.879 10.114-67.882 28.118s-28.118 42.422-28.118 67.882c0 25.46 10.114 49.878 28.118 67.882s42.422 28.118 67.882 28.118z" />
<glyph unicode="&#xe916;" glyph-name="lock" horiz-adv-x="896" d="M288 672v-96h320v96c0 88.4-71.6 160-160 160s-160-71.6-160-160zM160 576v96c0 159 129 288 288 288s288-129 288-288v-96h32c70.6 0 128-57.4 128-128v-384c0-70.6-57.4-128-128-128h-640c-70.6 0-128 57.4-128 128v384c0 70.6 57.4 128 128 128h32z" />
<glyph unicode="&#xe917;" glyph-name="paper-plane" d="M996.2 948.8c20.2-14 30.8-38.2 27-62.4l-128-832c-3-19.4-14.8-36.4-32-46s-37.8-10.8-56-3.2l-239.2 99.4-137-148.2c-17.8-19.4-45.8-25.8-70.4-16.2s-40.6 33.4-40.6 59.8v167.2c0 8 3 15.6 8.4 21.4l335.2 365.8c11.6 12.6 11.2 32-0.8 44s-31.4 12.8-44 1.4l-406.8-361.4-176.6 88.4c-21.2 10.6-34.8 31.8-35.4 55.4s11.8 45.6 32.2 57.4l896 512c21.4 12.2 47.8 11 68-2.8z" />
<glyph unicode="&#xe918;" glyph-name="plus" horiz-adv-x="896" d="M512 800c0 35.4-28.6 64-64 64s-64-28.6-64-64v-288h-288c-35.4 0-64-28.6-64-64s28.6-64 64-64h288v-288c0-35.4 28.6-64 64-64s64 28.6 64 64v288h288c35.4 0 64 28.6 64 64s-28.6 64-64 64h-288v288z" />
<glyph unicode="&#xe919;" glyph-name="right-from-bracket" d="M755.8 748.2l245.6-245.6c14.4-14.4 22.6-34.2 22.6-54.6s-8.2-40.2-22.6-54.6l-245.6-245.6c-12.8-12.8-30-19.8-48-19.8-37.4 0-67.8 30.4-67.8 67.8v124.2h-256c-35.4 0-64 28.6-64 64v128c0 35.4 28.6 64 64 64h256v124.2c0 37.4 30.4 67.8 67.8 67.8 18 0 35.2-7.2 48-19.8zM320 768h-128c-35.4 0-64-28.6-64-64v-512c0-35.4 28.6-64 64-64h128c35.4 0 64-28.6 64-64s-28.6-64-64-64h-128c-106 0-192 86-192 192v512c0 106 86 192 192 192h128c35.4 0 64-28.6 64-64s-28.6-64-64-64z" />
<glyph unicode="&#xe91a;" glyph-name="timeline" horiz-adv-x="1280" d="M256 816c12.73 0 24.94-5.057 33.942-14.059 9-9.002 14.058-21.211 14.058-33.941s-5.058-24.94-14.058-33.942c-9.002-9-21.212-14.058-33.942-14.058s-24.94 5.058-33.942 14.058c-9 9.002-14.058 21.212-14.058 33.942s5.058 24.939 14.058 33.941c9.002 9.002 21.212 14.059 33.942 14.059zM320 621.4c56.6 24.6 96 81 96 146.6 0 88.4-71.6 160-160 160s-160-71.6-160-160c0-65.6 39.4-122 96-146.6v-109.4h-128c-35.4 0-64-28.6-64-64s28.6-64 64-64h512v-109.4c-56.6-24.6-96-81-96-146.6 0-88.4 71.6-160 160-160s160 71.6 160 160c0 65.6-39.4 122-96 146.6v109.4h512c35.4 0 64 28.6 64 64s-28.6 64-64 64h-128v109.4c56.6 24.6 96 81 96 146.6 0 88.4-71.6 160-160 160s-160-71.6-160-160c0-65.6 39.4-122 96-146.6v-109.4h-640v109.4zM976 768c0 12.73 5.058 24.939 14.058 33.941 9.002 9.002 21.212 14.059 33.942 14.059s24.94-5.057 33.942-14.059c9-9.002 14.058-21.211 14.058-33.941s-5.058-24.94-14.058-33.942c-9.002-9-21.212-14.058-33.942-14.058s-24.94 5.058-33.942 14.058c-9 9.002-14.058 21.212-14.058 33.942zM640 176c12.73 0 24.94-5.058 33.942-14.058 9-9.002 14.058-21.212 14.058-33.942s-5.058-24.94-14.058-33.942c-9.002-9-21.212-14.058-33.942-14.058s-24.94 5.058-33.942 14.058c-9 9.002-14.058 21.212-14.058 33.942s5.058 24.94 14.058 33.942c9.002 9 21.212 14.058 33.942 14.058z" />
<glyph unicode="&#xe91b;" glyph-name="trash" horiz-adv-x="896" d="M270.4 924.6l-14.4-28.6h-192c-35.4 0-64-28.6-64-64s28.6-64 64-64h768c35.4 0 64 28.6 64 64s-28.6 64-64 64h-192l-14.4 28.6c-10.8 21.8-33 35.4-57.2 35.4h-240.8c-24.2 0-46.4-13.6-57.2-35.4zM832 704h-768l42.4-678c3.2-50.6 45.2-90 95.8-90h491.6c50.6 0 92.6 39.4 95.8 90l42.4 678z" />
<glyph unicode="&#xe91c;" glyph-name="user" horiz-adv-x="896" d="M448 448c67.896 0 133.010 26.972 181.020 74.98 48.008 48.010 74.98 113.124 74.98 181.020s-26.972 133.010-74.98 181.019c-48.010 48.009-113.124 74.981-181.020 74.981s-133.010-26.971-181.020-74.981c-48.008-48.009-74.98-113.124-74.98-181.019s26.972-133.010 74.98-181.020c48.010-48.008 113.124-74.98 181.020-74.98zM356.6 352c-197 0-356.6-159.6-356.6-356.6 0-32.8 26.6-59.4 59.4-59.4h777.2c32.8 0 59.4 26.6 59.4 59.4 0 197-159.6 356.6-356.6 356.6h-182.8z" />
</font>
</defs>
</svg>
